<?xml version="1.0" standalone="no"?>
<!DOCTYPE svg PUBLIC "-//W3C//DTD SVG 20010904//EN"
 "http://www.w3.org/TR/2001/REC-SVG-20010904/DTD/svg10.dtd">
<svg version="1.0" xmlns="http://www.w3.org/2000/svg"
 width="3513.000000pt" height="3513.000000pt" viewBox="0 0 3513.000000 3513.000000"
 preserveAspectRatio="xMidYMid meet">
<metadata>
Created by potrace 1.14, written by Peter Selinger 2001-2017
</metadata>
<g transform="translate(0.000000,3513.000000) scale(0.100000,-0.100000)"
fill="#000000" stroke="none">
<path d="M5192 35115 c-4 -5 -7 -7906 -7 -17557 l0 -17548 35 0 c47 -1 24589
-1 24660 0 l55 0 0 17555 0 17555 -12368 2 c-8238 2 -12371 0 -12375 -7z
m24719 -17475 c0 -9600 0 -17489 -1 -17531 l0 -76 -12350 0 -12350 0 0 17534
0 17533 12351 -2 12351 -3 -1 -17455z"/>
<path d="M14658 32530 l-3 -785 -185 -1 c-102 -1 -190 -2 -195 -3 -7 -1 -10
-132 -9 -383 1 -211 2 -388 3 -394 1 -8 55 -11 179 -12 97 0 185 0 195 -1 16
-1 17 -40 17 -666 0 -366 3 -666 8 -666 26 -4 1485 -3 1491 1 4 3 7 304 6 669
l0 664 197 1 196 0 -1 395 -2 396 -195 0 -195 0 0 783 c0 430 -2 783 -5 783
-3 1 -341 2 -752 3 l-748 1 -2 -785z"/>
<path d="M17765 33312 c-20 -3 -20 -9 -20 -650 l0 -647 444 -1 c292 -1 445 -5
450 -12 5 -8 6 -144 2 -237 -1 -20 -6 -20 -458 -20 -252 1 -463 0 -469 -2 -8
-3 -11 -113 -10 -396 l1 -392 462 -1 c255 0 466 -4 470 -7 4 -4 7 -305 7 -669
l1 -662 740 -1 c407 -1 745 1 752 3 9 3 11 166 11 663 0 363 2 663 6 666 3 4
213 7 466 6 l460 0 -2 396 -3 396 -462 0 -463 0 -1 30 c-2 128 0 227 5 232 3
3 204 6 446 6 l440 -1 -2 652 -3 651 -1625 0 c-894 0 -1634 -1 -1645 -3z"/>
<path d="M6629 29453 c-1 -5 -1 -10 -1 -14 0 -3 -37 -4 -84 -3 -74 1 -86 -1
-95 -18 -7 -14 -14 -16 -23 -9 -7 6 -17 6 -26 1 -9 -5 -19 -5 -26 1 -9 7 -16
5 -23 -9 -7 -14 -20 -18 -53 -18 -29 1 -49 -5 -61 -17 -10 -10 -22 -15 -27
-12 -6 4 -13 -1 -16 -9 -4 -10 -15 -14 -33 -11 -18 2 -32 -3 -41 -15 -7 -10
-20 -15 -31 -13 -13 4 -19 0 -19 -12 0 -11 -5 -15 -15 -11 -9 3 -28 -7 -46
-25 -17 -17 -37 -28 -44 -25 -7 2 -16 -5 -19 -17 -4 -16 -8 -19 -14 -9 -7 10
-11 10 -22 -3 -7 -8 -19 -15 -26 -15 -8 0 -13 -3 -12 -8 5 -15 -37 -49 -59
-47 -12 1 -22 -1 -21 -4 2 -21 -4 -31 -14 -25 -7 5 -9 2 -5 -9 4 -12 2 -14
-10 -10 -11 4 -14 2 -9 -5 4 -7 2 -12 -4 -12 -6 0 -8 -4 -5 -10 3 -5 0 -7 -9
-4 -9 3 -19 -3 -26 -16 -17 -32 -49 -62 -60 -55 -6 3 -7 -1 -4 -9 4 -11 0 -16
-10 -16 -9 0 -15 -5 -13 -12 1 -7 -4 -12 -10 -13 -7 0 -13 -4 -13 -8 1 -4 -9
-17 -22 -27 -13 -11 -17 -19 -10 -20 6 0 12 -5 12 -12 0 -6 -3 -9 -6 -6 -9 10
-75 -60 -79 -84 -3 -13 -12 -29 -22 -35 -9 -7 -11 -13 -5 -13 7 0 3 -9 -8 -20
-11 -11 -25 -20 -31 -20 -5 0 -7 -4 -4 -10 3 -5 1 -19 -6 -31 -9 -17 -8 -23 2
-30 14 -9 12 -10 -13 -13 -7 0 -13 -8 -14 -16 -2 -35 -5 -41 -14 -35 -5 3 -10
-3 -10 -15 0 -12 -6 -28 -14 -36 -8 -8 -13 -25 -10 -39 3 -17 -1 -27 -11 -32
-9 -3 -15 -15 -14 -27 3 -40 -1 -56 -13 -54 -9 2 -13 -16 -14 -60 0 -35 -5
-67 -11 -70 -15 -10 -13 -13310 2 -13316 6 -2 11 -29 10 -65 -1 -41 3 -61 11
-61 6 0 14 -7 18 -15 3 -8 2 -15 -2 -15 -4 0 -7 -11 -7 -25 0 -14 4 -25 8 -25
5 0 5 -4 2 -10 -3 -5 1 -10 9 -10 9 0 13 -7 11 -19 -5 -28 5 -61 19 -61 8 0
11 -13 8 -36 -3 -26 -1 -35 7 -30 11 7 14 -1 14 -36 0 -10 2 -16 6 -14 3 2 12
-2 18 -10 8 -8 9 -15 3 -19 -6 -4 -8 -11 -4 -16 3 -5 9 -7 14 -4 10 6 22 -23
14 -36 -3 -5 2 -12 10 -15 9 -3 16 -11 16 -18 0 -18 38 -88 52 -98 10 -6 10
-8 1 -8 -7 0 -10 -7 -7 -15 4 -8 10 -12 15 -9 5 3 9 1 9 -4 0 -5 9 -19 20 -32
11 -12 17 -27 14 -31 -3 -5 0 -9 6 -9 6 0 8 -4 5 -10 -6 -10 9 -15 30 -10 5 1
7 -2 3 -6 -4 -4 0 -14 10 -23 17 -16 24 -33 25 -59 0 -6 3 -10 5 -7 3 2 15 -7
28 -20 13 -14 28 -25 34 -25 6 0 8 -4 5 -10 -3 -5 1 -10 9 -10 9 0 13 -6 10
-14 -3 -8 6 -25 20 -39 14 -15 26 -31 26 -37 0 -5 3 -10 8 -10 14 0 72 -56 72
-69 0 -8 3 -12 6 -8 4 3 15 -4 25 -16 11 -13 18 -17 19 -9 0 8 12 3 29 -14 17
-15 27 -33 24 -38 -4 -6 -3 -8 2 -4 4 4 18 -3 30 -16 13 -14 31 -26 41 -28 10
-2 30 -15 44 -30 15 -15 30 -25 34 -21 4 4 4 -1 0 -12 -6 -15 -4 -17 10 -12
10 4 23 -1 33 -13 10 -11 20 -15 23 -10 8 13 60 -33 60 -52 0 -9 3 -9 10 2 8
12 10 12 10 1 0 -8 3 -12 6 -8 4 3 13 -1 21 -9 8 -8 19 -12 24 -9 5 4 9 1 9
-4 0 -6 7 -11 16 -11 8 0 13 -4 10 -9 -3 -4 5 -7 19 -6 13 2 26 -3 29 -12 3
-8 10 -11 16 -8 5 3 10 1 10 -6 0 -8 4 -8 15 1 12 10 16 9 21 -4 3 -9 10 -13
15 -10 5 3 9 1 9 -5 0 -5 9 -8 19 -6 15 3 18 0 14 -12 -5 -12 -2 -15 10 -10 8
3 18 1 21 -6 2 -7 5 -7 5 -2 1 7 16 9 36 7 19 -2 32 -8 29 -13 -6 -10 5 -12
54 -10 34 1 67 -20 54 -34 -4 -5 -1 -5 5 -1 21 12 53 15 53 6 0 -6 10 -6 25 0
18 7 26 6 33 -6 10 -17 49 -27 57 -13 4 5 12 6 18 2 21 -13 47 -13 47 -1 0 6
7 3 16 -8 8 -10 13 -12 9 -4 -4 8 3 4 14 -10 12 -15 21 -19 21 -11 0 11 3 11
17 0 11 -10 14 -10 9 -1 -9 15 6 16 22 0 9 -9 12 -9 12 1 0 11 3 11 17 0 15
-12 16 -12 8 1 -4 8 1 6 12 -5 16 -17 32 -20 100 -19 67 0 80 -2 75 -15 -3 -9
-1 -12 6 -7 7 4 12 2 12 -6 0 -8 3 -9 8 -3 4 6 14 10 22 10 8 0 18 -4 22 -10
5 -7 8 -6 8 0 0 6 9 11 20 11 11 0 20 -3 20 -7 0 -4 8 -6 18 -5 9 0 16 -4 15
-10 -1 -7 9 -11 22 -10 14 0 25 6 25 11 0 7 3 7 8 0 8 -12 102 -15 102 -3 0
10 43 -13 53 -29 5 -8 15 -9 31 -3 15 5 27 5 35 -3 6 -6 11 -7 11 -1 0 13 81
5 95 -10 7 -7 48 -11 103 -10 72 0 92 -3 92 -13 0 -8 5 -11 10 -8 6 3 10 2 10
-4 0 -7 8 -7 25 -1 17 6 25 6 25 -1 0 -6 6 -7 17 -1 9 6 29 6 45 2 16 -5 28
-5 28 1 0 5 5 8 12 6 16 -3 37 -21 33 -27 -2 -3 12 -6 31 -6 19 0 34 5 34 11
0 7 3 7 8 0 4 -6 21 -11 37 -11 17 0 33 5 37 11 5 7 8 6 8 -1 0 -6 10 -10 23
-9 27 2 48 -5 42 -14 -2 -4 19 -9 47 -10 29 -1 55 -4 60 -7 4 -3 8 -1 8 5 0 6
11 6 30 1 19 -5 30 -5 30 1 0 6 8 5 20 -1 15 -8 20 -8 20 1 0 7 3 9 8 5 4 -4
7 -13 7 -19 0 -9 34 -12 118 -11 64 0 117 -4 117 -9 0 -4 5 -5 10 -2 6 3 13
-1 16 -9 5 -12 10 -13 25 -5 14 7 19 6 19 -2 0 -8 4 -8 15 1 12 10 15 10 15 0
0 -10 3 -10 15 0 12 10 15 10 15 0 0 -10 3 -10 15 0 12 10 15 10 15 0 0 -10 3
-10 15 0 12 10 15 10 15 0 0 -10 3 -10 15 0 12 10 15 10 15 -1 0 -10 3 -10 12
-1 8 8 15 7 27 -6 13 -15 33 -18 116 -17 55 0 105 4 112 8 6 4 14 3 18 -3 4
-6 10 -8 15 -5 5 3 12 -1 17 -8 9 -16 73 -29 73 -15 0 5 9 4 20 -2 11 -6 20
-7 20 -3 0 5 32 6 70 3 40 -3 70 -1 70 4 0 5 10 0 23 -11 13 -12 33 -19 50
-17 18 2 25 -1 21 -8 -5 -7 -2 -8 7 -2 20 13 212 13 221 0 5 -7 8 -7 8 2 0 6
5 12 11 12 5 0 7 -5 4 -10 -6 -9 8 -14 28 -11 4 0 7 -4 7 -9 0 -7 6 -7 20 0
12 6 20 7 20 1 0 -6 11 -6 29 -1 20 5 31 5 33 -2 3 -8 11 -7 26 1 15 8 22 8
22 1 0 -6 5 -8 12 -4 18 12 58 11 58 -1 0 -5 5 -3 10 5 7 11 10 11 10 2 0 -10
5 -10 20 -2 14 7 20 7 20 0 0 -5 7 -10 16 -10 8 0 13 -4 10 -8 -7 -12 108 -10
116 2 5 8 8 8 8 1 0 -6 20 -12 45 -12 30 -1 43 2 39 9 -5 7 -2 8 7 2 8 -5 34
-9 59 -10 77 -3 81 -4 76 -13 -3 -5 5 -11 19 -13 14 -3 25 -2 25 1 0 3 61 4
135 1 87 -3 135 -1 135 5 0 6 4 4 9 -4 7 -11 9 -11 13 0 3 10 13 5 33 -16 16
-17 26 -25 22 -19 -4 7 57 10 196 10 186 -1 233 -7 221 -28 -5 -8 31 -3 45 7
5 3 13 1 16 -5 5 -8 11 -8 20 0 9 8 15 8 20 0 4 -6 12 -7 24 0 12 6 22 5 29
-2 9 -9 12 -9 12 1 0 7 5 9 12 5 16 -10 48 -13 48 -4 0 9 32 6 48 -4 7 -4 12
-2 12 5 0 8 5 7 17 -2 20 -17 16 -17 36 0 13 10 17 10 17 1 0 -10 3 -10 14 -1
10 9 16 9 21 1 5 -8 11 -8 21 1 11 9 14 8 14 -2 0 -10 3 -10 12 -1 9 9 14 8
23 -5 13 -18 62 -26 71 -12 4 6 10 6 17 1 13 -11 126 -10 143 0 6 4 14 4 18 0
4 -4 69 -7 144 -7 97 -1 136 -4 135 -12 -2 -7 21 -13 62 -15 36 -1 65 -1 65 2
0 3 27 3 60 0 33 -3 60 -3 60 0 0 3 27 3 60 0 33 -3 60 -2 60 2 0 4 6 5 13 3
22 -8 87 -12 87 -6 0 4 9 7 20 7 11 0 20 -5 20 -11 0 -5 5 -3 10 5 9 13 10 13
10 0 0 -13 1 -13 10 0 9 13 10 13 10 0 0 -13 1 -13 10 0 5 8 10 10 10 3 0 -6
9 -9 20 -6 14 4 20 0 20 -11 0 -13 7 -15 31 -11 23 4 29 2 23 -7 -6 -10 -4
-10 7 -2 17 12 98 12 118 0 9 -6 12 -5 8 0 -3 6 19 10 53 10 37 0 56 -4 52
-11 -4 -6 -1 -6 9 1 17 12 98 12 118 0 9 -6 12 -5 8 1 -8 13 106 11 115 -2 5
-7 8 -7 8 0 0 13 109 13 129 1 9 -6 12 -5 8 1 -4 6 7 10 28 9 22 -1 37 -7 40
-17 5 -15 52 -18 74 -4 6 3 11 2 11 -4 0 -10 19 -9 37 2 8 5 13 3 13 -3 0 -7
6 -8 19 0 14 7 21 6 24 -3 4 -8 6 -8 6 -1 1 8 12 9 35 4 18 -4 41 -3 50 2 10
6 16 5 16 -1 0 -10 19 -9 38 2 7 5 12 3 12 -3 0 -8 6 -7 21 1 12 6 24 7 28 3
8 -11 41 -14 41 -4 0 4 15 4 34 0 18 -4 41 -3 50 2 10 6 16 5 16 -1 0 -10 19
-9 38 2 7 5 12 3 12 -3 0 -8 6 -7 21 1 12 6 24 7 28 3 8 -11 41 -14 41 -4 0 4
15 4 34 0 18 -4 41 -3 50 2 10 6 16 5 16 -1 0 -10 19 -9 38 2 7 5 12 3 12 -3
0 -8 6 -7 21 1 12 6 24 7 28 3 8 -11 41 -14 41 -4 0 10 71 -6 79 -18 7 -11
131 -10 148 1 6 4 14 4 17 -1 3 -5 120 -8 261 -8 141 1 260 -1 263 -4 12 -9
10 -55 -2 -62 -6 -5 -7 -8 -1 -8 12 0 15 -70 3 -70 -5 0 -5 -8 -1 -17 10 -22
10 -54 0 -71 -5 -6 -4 -12 0 -12 13 0 10 -93 -2 -102 -7 -5 -7 -11 0 -15 13
-10 13 -176 0 -185 -7 -5 -7 -8 0 -8 13 0 13 -63 0 -72 -7 -6 -7 -10 0 -15 14
-10 13 -96 0 -105 -6 -5 -5 -11 3 -17 17 -11 17 -21 0 -32 -7 -5 -8 -9 -2 -9
13 0 13 -92 -1 -102 -7 -5 -7 -11 0 -15 14 -10 13 -96 0 -105 -7 -5 -7 -8 0
-8 12 0 15 -70 4 -70 -5 0 -6 -6 -4 -13 4 -10 -44 -12 -225 -12 -209 1 -233
-1 -250 -17 -27 -25 -25 -25 -43 -9 -14 11 -20 11 -32 1 -12 -10 -15 -10 -15
0 0 10 -3 10 -15 0 -12 -10 -15 -10 -15 0 0 10 -3 10 -14 1 -10 -9 -16 -9 -21
-1 -5 8 -10 8 -20 0 -9 -8 -15 -8 -20 0 -4 6 -12 7 -24 0 -12 -6 -22 -5 -29 2
-9 9 -12 9 -12 -1 0 -10 -3 -11 -13 -3 -8 7 -18 7 -27 2 -9 -5 -19 -5 -27 2
-9 7 -13 7 -13 -2 0 -9 -3 -10 -14 -1 -10 8 -19 7 -37 -7 -21 -16 -43 -18
-172 -17 -119 0 -150 -2 -156 -14 -5 -8 -17 -12 -30 -8 -11 3 -21 2 -21 -1 0
-4 -48 -5 -106 -2 -87 4 -108 2 -118 -10 -8 -11 -31 -15 -88 -15 -47 0 -78 -3
-78 -10 0 -7 -3 -7 -8 0 -4 6 -30 11 -59 11 -42 0 -51 -2 -48 -16 3 -15 -20
-19 -60 -10 -5 1 -14 1 -20 0 -26 -6 -51 -4 -56 4 -4 4 -16 3 -28 -3 -16 -9
-21 -9 -21 0 0 8 -4 8 -15 -1 -8 -7 -15 -9 -15 -4 0 5 -5 2 -10 -6 -11 -18
-98 -23 -119 -6 -11 8 -13 8 -8 -1 5 -8 -5 -11 -33 -9 -29 2 -40 -1 -40 -12 0
-11 -11 -13 -45 -10 -25 2 -45 1 -45 -2 0 -9 -75 -5 -82 5 -5 6 -8 5 -8 -3 0
-7 -5 -10 -10 -7 -6 3 -13 0 -15 -8 -4 -10 -27 -13 -90 -12 -46 1 -82 -2 -80
-5 2 -3 0 -12 -6 -20 -7 -12 -9 -12 -9 -1 0 10 -3 11 -14 2 -10 -9 -16 -9 -21
-1 -5 8 -11 8 -21 -1 -11 -9 -14 -9 -14 1 0 10 -3 10 -14 1 -11 -9 -15 -9 -18
0 -3 9 -10 7 -24 -7 -17 -17 -33 -20 -106 -19 -47 0 -86 -2 -86 -5 2 -26 -3
-30 -22 -20 -11 6 -20 7 -20 3 0 -5 -19 -7 -41 -5 -29 3 -40 1 -35 -7 4 -6 1
-11 -8 -11 -9 0 -16 -6 -16 -12 0 -9 -3 -9 -8 -3 -8 12 -47 14 -57 3 -4 -4
-16 -3 -26 3 -15 8 -19 6 -19 -8 0 -13 -8 -18 -25 -18 -14 0 -25 4 -25 9 0 5
-7 3 -15 -4 -8 -7 -15 -9 -15 -5 0 5 -8 1 -18 -8 -12 -11 -31 -15 -59 -13 -23
2 -42 0 -41 -3 2 -22 -7 -26 -47 -23 -34 3 -45 0 -45 -10 0 -10 -12 -14 -40
-13 -25 1 -40 -3 -40 -11 0 -16 -36 -24 -49 -11 -8 8 -11 7 -11 -2 0 -7 -4 -9
-10 -6 -5 3 -10 -1 -10 -11 0 -12 -6 -15 -26 -11 -15 3 -31 -2 -41 -12 -9 -9
-18 -15 -20 -14 -11 6 -42 -11 -36 -21 3 -6 3 -8 -2 -4 -4 4 -24 -1 -44 -11
-20 -10 -42 -16 -49 -14 -7 3 -11 -1 -10 -9 2 -7 -4 -14 -12 -14 -8 -1 -22 -2
-30 -3 -13 -1 -13 -2 0 -11 13 -8 12 -10 -2 -10 -10 0 -18 -7 -18 -16 0 -8 -4
-13 -8 -10 -4 2 -14 1 -22 -5 -13 -7 -13 -9 0 -9 13 0 13 -1 0 -10 -13 -9 -13
-10 0 -11 8 0 2 -7 -15 -14 -16 -8 -25 -14 -19 -15 6 0 10 -13 9 -30 -1 -17 4
-31 13 -35 9 -3 12 -13 9 -25 -3 -11 -1 -20 5 -20 6 0 27 -18 48 -40 22 -23
47 -40 59 -40 12 0 19 -4 16 -10 -3 -5 2 -10 13 -10 10 0 29 -9 42 -20 26 -23
34 -25 24 -7 -4 6 2 4 13 -6 12 -10 30 -20 40 -22 10 -1 17 -8 15 -15 -2 -7 3
-10 12 -7 8 3 17 1 20 -6 3 -9 5 -9 5 0 1 10 7 10 26 1 14 -6 25 -14 25 -18 0
-3 16 -5 35 -4 21 2 33 -1 30 -6 -4 -6 -1 -10 5 -10 6 0 8 -5 4 -12 -5 -9 -2
-9 9 1 12 9 17 10 17 2 0 -9 5 -9 20 -1 14 7 20 7 20 0 0 -5 3 -9 8 -9 18 3
33 -2 28 -9 -8 -13 28 -11 36 2 6 8 8 8 8 -1 0 -6 8 -10 17 -9 10 2 24 -3 31
-11 8 -7 30 -12 49 -11 20 1 38 -3 43 -11 5 -9 30 -14 72 -15 50 -1 62 -4 60
-16 -2 -8 0 -12 4 -8 4 4 13 3 21 -3 9 -9 13 -8 13 0 0 8 5 9 18 2 11 -6 24
-6 32 -1 10 6 21 3 32 -7 20 -18 115 -26 124 -11 3 5 18 -3 32 -17 15 -15 28
-23 29 -18 5 13 115 2 131 -13 7 -8 18 -12 23 -9 5 4 9 0 9 -7 0 -9 3 -10 8
-2 8 12 133 14 126 2 -6 -10 42 -22 55 -13 6 3 11 0 11 -7 0 -9 3 -9 10 2 6
10 10 11 10 3 0 -9 7 -10 27 -2 20 7 28 6 35 -3 6 -10 8 -10 8 2 0 10 4 8 15
-6 13 -19 23 -21 104 -19 77 1 93 -1 108 -17 13 -14 18 -16 25 -6 6 10 10 10
18 -2 7 -11 10 -11 10 -2 0 9 5 10 19 2 11 -5 22 -6 25 -1 3 4 24 5 46 1 22
-4 40 -4 40 0 0 5 9 6 20 3 10 -3 18 -10 17 -16 -1 -7 40 -10 118 -11 79 0
124 -4 132 -12 7 -6 10 -13 8 -16 -2 -2 5 -4 15 -4 11 0 20 3 20 6 0 3 11 5
25 5 14 0 25 -3 25 -7 0 -5 5 -8 11 -8 5 0 8 4 5 9 -3 5 8 6 27 1 18 -4 41 -4
52 0 11 4 26 2 34 -4 11 -8 13 -8 7 1 -5 9 -2 11 8 7 9 -3 16 -11 16 -18 0 -8
48 -11 163 -11 112 -1 161 -4 160 -12 -1 -6 11 -13 27 -15 17 -3 30 -2 30 1 0
3 49 4 110 1 61 -3 110 -3 110 0 0 3 20 4 45 2 25 -2 45 -8 45 -14 0 -5 4 -7
9 -3 5 3 12 1 15 -4 7 -10 25 -9 43 2 6 4 14 3 17 -1 3 -5 21 -8 41 -7 21 2
35 -2 35 -9 0 -8 2 -8 8 0 9 14 92 13 92 -1 0 -5 4 -4 8 3 9 13 38 12 61 -2 9
-6 12 -5 8 1 -8 12 71 12 90 0 6 -4 15 -2 18 4 5 7 12 3 22 -10 8 -13 19 -18
26 -14 17 11 37 13 37 3 0 -8 43 -5 59 5 6 3 11 1 11 -5 0 -6 5 -8 13 -3 17
11 37 13 37 3 0 -8 43 -5 59 5 6 3 11 1 11 -5 0 -6 5 -8 13 -3 17 11 37 13 37
3 0 -8 43 -5 59 5 6 3 11 1 11 -5 0 -6 5 -8 12 -3 18 11 38 13 38 3 0 -8 43
-5 59 5 6 3 11 1 11 -5 0 -6 5 -8 13 -3 17 10 37 13 37 4 0 -4 14 -6 30 -5 18
1 30 -3 30 -10 0 -16 30 -17 49 -2 10 7 13 7 8 0 -8 -14 95 -14 105 1 5 7 8 7
8 0 0 -13 99 -14 119 -1 9 6 12 5 8 -1 -4 -6 17 -9 53 -9 34 0 56 4 53 10 -4
5 -1 6 8 0 19 -12 101 -14 116 -2 7 5 14 5 17 0 3 -6 35 -8 71 -6 49 2 64 0
58 -9 -5 -9 -3 -9 9 0 8 7 18 10 22 6 4 -4 11 -1 16 7 6 8 10 10 10 5 0 -12
99 -14 116 -3 6 4 14 4 18 0 12 -11 90 -9 98 3 5 7 8 7 8 0 0 -12 99 -14 116
-3 6 4 14 4 18 0 12 -11 96 -9 96 3 0 6 3 6 8 -1 4 -6 24 -11 45 -10 21 2 42
-3 47 -9 12 -14 547 -15 558 0 11 15 105 18 96 2 -6 -9 -4 -9 8 0 8 7 18 10
22 6 4 -4 11 -1 16 7 6 8 10 10 10 5 0 -12 99 -14 116 -3 6 4 14 4 18 0 12
-11 90 -9 98 3 5 7 8 7 8 0 0 -12 99 -14 116 -3 6 4 14 4 18 0 12 -11 96 -9
96 3 0 7 3 7 8 0 10 -15 122 -15 122 -1 0 7 3 8 8 1 9 -14 113 -15 105 -2 -4
6 -1 7 8 1 19 -12 108 -14 115 -3 3 5 11 6 17 2 19 -12 107 -12 100 0 -4 6 -1
7 8 1 21 -13 109 -13 109 0 0 7 3 7 8 1 12 -17 31 -16 43 4 10 15 18 17 47 10
21 -4 43 -4 54 2 12 7 18 6 18 -1 0 -6 5 -8 12 -3 18 11 38 13 38 3 0 -8 43
-5 59 5 6 3 11 1 11 -5 0 -6 5 -8 13 -3 17 11 37 13 37 3 0 -8 43 -5 59 5 6 3
11 1 11 -5 0 -6 5 -8 13 -3 17 11 37 13 37 3 0 -8 43 -6 57 3 5 3 15 2 23 -3
8 -5 22 -5 32 1 12 7 18 6 18 -1 0 -7 6 -8 17 -2 9 6 29 6 45 1 16 -4 26 -4
23 1 -3 5 0 12 7 17 18 11 111 12 125 1 7 -5 13 -5 17 0 7 11 56 10 75 -2 9
-6 12 -5 8 1 -8 13 96 12 105 -2 5 -6 8 -5 8 3 0 8 9 11 24 8 13 -2 37 2 52
11 19 9 49 13 87 11 31 -2 57 0 57 4 0 4 13 3 30 -2 17 -5 30 -6 30 -2 0 4 39
6 87 4 65 -3 88 0 94 10 6 11 42 14 168 13 87 0 157 3 155 7 -2 3 1 10 8 14
17 11 48 12 48 3 0 -5 11 -4 25 1 15 6 26 6 30 0 4 -7 13 -6 26 0 14 8 19 7
19 -1 0 -8 4 -8 15 1 12 10 15 10 15 0 0 -10 3 -10 15 0 12 10 15 10 15 -1 0
-10 3 -10 12 -1 8 8 17 8 31 1 14 -8 18 -8 13 0 -4 6 -2 11 4 11 6 0 9 4 6 8
-3 4 49 8 115 7 67 0 126 3 132 7 7 4 8 8 2 9 -5 1 4 4 20 8 17 4 49 4 73 0
27 -4 42 -2 42 5 0 6 4 5 9 -3 6 -9 11 -10 15 -2 5 8 13 8 27 1 13 -7 19 -7
19 0 0 5 5 9 12 7 7 -1 12 4 13 11 0 10 8 15 18 11 1 -1 41 -2 90 -3 62 -1 86
2 83 11 -3 7 5 10 20 8 13 -1 24 1 24 4 0 3 14 6 30 6 17 0 30 -4 30 -8 0 -5
4 -5 10 -2 19 12 50 14 50 3 0 -6 3 -8 8 -4 4 4 7 13 7 19 0 8 28 12 88 12 67
0 87 3 87 14 0 9 10 12 35 9 19 -2 35 -1 35 2 0 8 43 5 57 -3 6 -4 13 2 16 12
4 15 13 18 56 17 29 -1 54 2 57 6 3 5 11 5 17 1 22 -13 39 -12 33 3 -3 8 -2
14 2 15 44 5 52 4 52 -4 0 -5 6 -5 13 2 10 7 16 8 24 0 8 -8 15 -6 24 9 9 15
20 19 42 15 18 -3 27 -1 23 6 -4 6 4 7 26 0 42 -12 41 -12 35 5 -4 10 -1 13 9
9 7 -3 14 -1 14 3 0 11 52 10 70 -1 9 -5 11 -4 6 3 -4 7 -2 12 4 12 6 0 9 4 5
9 -3 5 0 13 6 17 7 4 9 3 6 -3 -4 -7 5 -10 23 -9 17 0 30 5 30 10 0 4 7 3 16
-4 13 -11 16 -10 21 9 3 14 9 18 17 13 12 -10 71 10 60 20 -3 4 17 6 44 4 28
-1 48 2 46 6 -3 4 0 8 6 8 6 0 8 5 4 12 -4 7 -3 8 5 4 14 -9 53 3 46 14 -3 5
11 7 30 5 25 -2 39 2 48 14 6 10 20 17 29 15 10 -1 16 3 15 9 -1 7 10 12 25
11 15 -1 27 2 26 5 -2 21 4 29 22 26 12 -2 30 9 52 33 17 20 36 36 41 34 5 -2
7 8 5 22 -3 14 -2 23 2 21 8 -5 20 17 26 45 2 8 -4 25 -12 38 -8 12 -13 26
-11 30 5 10 -40 51 -48 44 -3 -4 -3 1 1 11 5 13 1 17 -17 18 -13 1 -27 1 -31
0 -4 0 -10 9 -13 20 -5 16 -9 18 -21 8 -12 -10 -16 -8 -20 9 -4 13 -12 19 -24
17 -10 -2 -24 3 -31 11 -6 8 -18 14 -26 14 -8 0 -21 6 -29 14 -8 8 -24 13 -36
11 -12 -3 -27 3 -34 13 -7 9 -14 13 -14 8 0 -5 -7 -3 -15 4 -8 7 -15 8 -15 3
0 -5 -6 -10 -14 -10 -8 0 -15 3 -14 6 2 21 -6 27 -34 26 -21 -1 -40 6 -52 18
-10 10 -21 15 -25 10 -10 -14 -69 -10 -64 4 5 14 2 15 -64 16 -24 0 -41 5 -40
11 1 6 -4 10 -10 9 -7 -2 -13 2 -13 8 0 6 -5 7 -12 2 -21 -12 -38 -12 -38 0 0
8 -4 7 -9 -2 -7 -11 -10 -9 -15 7 -7 20 -20 23 -43 9 -6 -4 -14 -3 -17 2 -3 5
-19 7 -36 6 -16 -1 -27 1 -24 6 5 9 -17 15 -73 22 -19 2 -33 -1 -33 -7 0 -6
-5 -4 -10 4 -5 8 -10 11 -10 7 0 -5 -6 -2 -14 6 -10 9 -34 14 -73 12 -44 -1
-62 3 -77 17 -14 12 -23 15 -32 7 -8 -7 -14 -7 -19 1 -5 8 -11 8 -21 -1 -8 -6
-14 -8 -14 -3 0 5 -11 9 -25 9 -14 0 -25 -4 -25 -8 0 -4 -9 -3 -20 3 -11 6
-19 14 -16 18 2 4 -17 8 -44 8 -32 0 -47 -4 -42 -10 4 -8 2 -8 -9 0 -8 5 -28
10 -46 9 -17 -1 -31 4 -30 9 1 7 -34 13 -93 16 -55 3 -94 9 -93 15 2 5 -16 9
-40 9 -23 -1 -45 4 -49 10 -6 8 -8 8 -8 0 0 -7 -22 -11 -59 -10 -33 0 -57 4
-55 8 3 5 0 8 -6 8 -6 0 -8 5 -5 10 7 11 -8 14 -19 3 -10 -10 -50 -10 -57 1
-4 4 -16 3 -28 -3 -15 -8 -21 -9 -21 -1 0 6 -5 8 -12 4 -17 -11 -58 -11 -58
-1 0 4 -4 6 -9 2 -5 -3 -16 1 -23 9 -16 16 -78 17 -78 1 0 -7 -3 -6 -8 0 -10
15 -143 15 -136 1 3 -6 -3 -1 -12 12 -16 21 -23 22 -149 22 -97 0 -134 3 -137
12 -3 9 -49 13 -170 13 -148 0 -168 2 -187 19 -17 15 -23 16 -36 6 -12 -10
-15 -10 -15 0 0 10 -3 10 -15 0 -8 -7 -15 -8 -15 -3 0 5 -9 9 -20 9 -11 0 -20
-3 -20 -6 0 -9 -32 -6 -48 4 -7 4 -12 2 -12 -6 0 -8 -3 -9 -8 -3 -9 12 -52 15
-52 3 0 -5 -7 -5 -16 0 -9 5 -32 6 -50 2 -20 -5 -32 -4 -28 1 8 13 -10 11 -24
-3 -9 -9 -12 -9 -12 1 0 7 -5 9 -10 6 -6 -3 -12 0 -15 7 -7 17 -206 20 -217 4
-5 -7 -8 -8 -8 -1 0 15 -230 15 -230 0 0 -5 -5 -2 -11 9 -15 24 -18 166 -4
166 6 0 7 3 0 8 -13 9 -13 225 0 234 7 5 7 8 0 8 -6 0 -10 45 -10 115 0 70 4
115 10 115 7 0 7 3 0 8 -12 8 -14 312 -2 312 5 0 5 5 1 11 -6 11 -9 108 -4
134 1 6 2 14 1 18 -1 5 7 6 18 2 11 -3 22 -1 26 5 3 6 12 7 18 3 18 -12 177
-12 170 0 -4 6 -1 7 8 1 21 -13 209 -13 209 0 0 8 2 8 8 0 8 -13 131 -13 151
0 9 6 12 5 8 -1 -11 -18 69 -10 89 8 13 11 26 14 39 9 11 -4 28 -3 38 2 10 5
17 5 17 -1 0 -10 19 -9 37 2 8 5 13 3 13 -3 0 -7 7 -7 22 1 15 8 23 9 26 1 2
-7 13 -7 33 -2 16 5 29 5 29 0 0 -10 19 -8 38 3 7 5 12 3 12 -3 0 -8 6 -7 21
1 12 6 24 7 28 3 8 -11 41 -14 41 -4 0 4 15 4 34 0 18 -4 41 -3 50 2 10 6 16
5 16 -1 0 -10 19 -9 38 2 7 5 12 3 12 -3 0 -8 6 -7 21 1 12 6 24 7 28 3 8 -11
41 -14 41 -4 0 4 15 4 34 0 18 -4 41 -3 50 2 10 6 16 5 16 -1 0 -11 19 -9 39
3 7 5 16 5 20 -1 7 -10 21 -11 39 0 7 5 12 4 12 -2 0 -7 8 -7 25 -1 14 5 25 6
25 1 0 -10 19 -9 35 1 6 4 17 3 24 -1 18 -12 51 -2 45 13 -6 14 53 16 75 2 9
-6 12 -5 8 0 -3 6 19 10 53 10 37 0 56 -4 52 -11 -4 -6 -1 -6 9 1 17 12 98 12
118 0 9 -6 12 -5 8 1 -7 12 112 11 132 -1 9 -6 12 -5 8 0 -3 6 30 10 84 10 55
0 89 -4 89 -11 0 -7 3 -7 8 0 4 6 30 10 57 10 37 0 49 4 47 14 -2 9 5 12 23 9
14 -3 25 -2 25 2 0 4 18 4 40 0 22 -4 40 -4 40 0 0 4 18 4 40 0 22 -4 43 -4
45 0 3 4 21 4 40 0 19 -4 35 -4 35 0 0 4 18 4 40 0 22 -4 42 -4 44 -1 3 4 34
4 70 1 36 -3 66 -3 66 0 0 3 27 3 60 2 44 -3 61 0 65 10 4 10 26 13 86 13 44
-1 82 2 85 7 3 5 11 5 17 1 7 -5 80 -8 163 -8 143 0 152 1 148 18 -2 14 0 16
10 8 9 -7 16 -7 24 1 9 9 12 9 12 -1 0 -11 3 -11 15 -1 12 10 15 10 15 0 0
-10 3 -10 14 -1 10 8 16 9 21 1 4 -7 12 -7 25 0 13 7 21 7 25 0 5 -8 11 -8 20
0 9 8 15 8 20 0 4 -6 12 -7 24 0 12 6 22 5 29 -2 9 -9 12 -9 12 1 0 7 5 9 12
5 16 -10 48 -13 48 -4 0 9 32 6 48 -4 7 -4 12 -2 12 6 0 8 3 9 8 3 8 -11 52
-15 52 -5 0 9 32 6 49 -5 11 -6 13 -4 8 7 -8 22 5 24 200 23 94 0 169 3 167 7
-3 5 -4 9 -2 10 2 1 102 4 223 8 144 3 219 9 218 15 -1 7 50 10 150 10 84 -1
158 1 165 3 6 2 12 12 12 21 0 12 2 13 9 3 11 -18 12 -18 39 -3 16 9 22 9 22
0 0 -9 3 -9 14 0 10 8 16 9 21 1 4 -7 12 -7 26 0 14 8 19 7 19 -1 0 -9 3 -9
14 0 10 8 16 9 21 1 4 -7 12 -7 26 0 14 8 19 7 19 -1 0 -9 3 -9 14 0 10 8 16
9 21 1 4 -7 12 -7 26 0 13 8 19 7 19 0 0 -6 14 -1 31 11 26 18 33 19 40 8 5
-8 9 -9 9 -3 0 13 169 13 189 0 10 -7 12 -6 6 4 -6 10 -4 12 7 7 9 -3 24 2 34
11 15 15 34 16 137 12 65 -3 121 -2 124 3 2 4 9 5 14 2 5 -4 15 0 23 7 10 10
46 14 137 13 111 0 155 7 143 26 -5 8 29 5 44 -5 7 -4 12 -2 12 5 0 8 4 8 15
-1 12 -10 15 -10 15 0 0 10 3 10 15 0 12 -10 15 -10 15 0 0 10 3 10 15 0 12
-10 15 -10 15 0 0 9 3 10 13 1 10 -8 17 -7 25 1 9 9 12 9 12 -1 0 -11 3 -11
15 -1 12 10 15 10 15 -1 1 -9 6 -7 16 6 13 18 27 20 130 20 76 0 117 4 122 12
8 13 172 20 191 9 6 -4 11 -2 11 5 0 8 4 8 16 -1 8 -8 14 -9 13 -4 -3 18 1 37
8 31 3 -4 13 -1 21 6 9 7 13 7 9 1 -8 -13 80 -13 102 0 9 6 12 5 7 -2 -8 -13
49 -10 61 3 4 4 2 5 -4 1 -7 -4 -13 -5 -13 -1 0 13 46 22 77 15 18 -5 31 -5
28 -1 -2 4 12 7 30 7 19 -1 35 -5 35 -9 0 -4 10 -3 21 4 16 8 23 8 29 -1 5 -9
9 -9 14 -1 4 6 4 11 -1 11 -4 0 -2 4 5 9 7 4 52 7 100 7 56 -1 91 3 97 11 12
14 65 20 83 10 6 -5 12 -4 12 0 0 5 16 7 36 5 26 -3 39 0 45 10 6 11 23 15 59
14 27 -1 56 1 62 5 7 4 18 3 24 -2 9 -7 19 -4 33 10 16 16 26 19 45 12 15 -6
27 -6 35 2 8 8 11 8 11 -2 0 -10 3 -11 14 -2 11 9 15 9 19 -1 4 -9 6 -10 6 -1
1 7 8 10 17 6 10 -4 20 0 25 10 7 11 22 14 59 13 31 -2 50 1 50 8 0 6 4 5 9
-2 7 -11 11 -11 23 2 9 8 18 12 22 9 3 -4 6 -1 6 7 0 10 3 10 15 0 12 -10 15
-10 15 1 0 9 3 10 11 2 7 -7 21 -8 40 -3 17 5 29 5 29 -1 0 -5 9 -1 19 8 11 9
17 21 14 26 -4 6 -1 7 8 1 24 -15 100 -11 109 6 6 11 23 15 65 14 38 -2 58 2
61 10 3 8 23 13 51 13 26 0 48 6 53 13 9 15 70 20 70 6 0 -5 9 1 19 13 11 13
25 20 31 16 6 -4 17 1 25 11 14 20 45 25 58 9 4 -6 10 -1 13 12 5 18 11 22 31
17 13 -4 23 -2 22 2 -4 24 4 31 31 29 17 -1 28 2 27 9 -1 6 5 11 15 11 9 0 28
13 42 28 14 16 31 25 36 22 6 -3 10 -1 10 5 0 6 5 8 10 5 6 -3 13 0 16 9 3 8
12 12 20 9 7 -3 17 2 20 11 3 9 12 16 20 16 8 0 13 6 12 13 -2 6 3 11 11 9 9
-2 11 3 7 13 -4 13 -1 16 17 13 25 -3 71 38 60 55 -3 6 -1 7 5 3 7 -4 22 4 36
18 13 14 31 26 40 26 9 0 19 7 23 16 3 8 11 13 19 10 8 -3 11 2 9 15 -2 11 0
17 6 14 5 -4 12 1 15 9 3 8 14 18 25 21 11 4 17 11 14 16 -4 5 -1 9 5 9 6 0 8
5 5 10 -4 6 -3 9 2 8 14 -5 51 34 46 48 -3 8 2 17 11 20 9 3 16 13 16 21 0 8
4 12 9 9 5 -3 12 1 15 10 3 8 10 12 16 9 6 -3 7 1 4 9 -5 14 5 21 28 17 4 0 5
8 3 19 -2 13 9 34 32 57 20 21 33 31 28 23 -5 -9 -5 -12 1 -7 5 5 9 12 9 15 0
4 4 13 9 21 6 10 5 12 -2 7 -8 -5 -10 -2 -6 8 3 9 11 14 17 13 7 -1 11 4 9 11
-2 10 9 16 29 14 3 0 4 12 3 28 -1 18 3 28 10 27 6 -1 10 6 8 15 -1 9 7 23 18
31 14 9 17 17 11 22 -17 10 -13 28 4 21 15 -5 18 1 18 36 0 10 8 20 19 24 13
4 16 9 10 17 -11 14 11 40 23 29 5 -4 6 3 3 15 -4 13 1 29 12 41 12 13 15 24
8 35 -6 12 -3 20 12 29 11 7 20 19 20 26 0 8 -5 10 -12 6 -9 -5 -9 -2 1 9 7 9
10 17 6 17 -4 0 -2 7 5 15 7 8 15 13 19 11 3 -2 6 9 6 25 0 16 -3 29 -6 29 -3
0 -4 11 -1 25 2 14 8 22 13 20 10 -7 31 30 22 39 -14 14 -12 74 2 80 13 5 15
819 15 6655 0 3657 -3 6656 -6 6665 -3 9 -9 14 -13 12 -3 -3 -6 19 -6 47 0 51
-10 84 -30 99 -6 5 -6 8 2 8 15 0 5 37 -12 44 -7 2 -12 17 -10 35 1 17 0 31
-4 31 -3 0 -12 9 -19 21 -11 17 -11 20 0 14 7 -3 3 3 -10 14 -13 11 -22 28
-20 38 2 11 -2 17 -10 15 -8 -1 -11 2 -7 8 3 5 0 10 -7 10 -10 0 -10 2 1 9 11
7 11 9 0 14 -9 4 -10 6 -2 6 17 1 4 31 -14 31 -8 0 -11 5 -8 10 3 6 -1 13 -9
16 -9 3 -16 17 -16 31 0 18 -4 24 -14 20 -10 -4 -13 0 -11 14 2 11 -4 28 -15
39 -10 10 -15 21 -12 25 4 4 2 5 -3 3 -13 -4 -55 38 -47 47 4 4 -1 13 -12 20
-10 8 -15 18 -11 24 3 7 0 8 -9 5 -11 -4 -16 0 -16 10 0 9 -7 16 -16 16 -10 0
-14 6 -10 15 3 8 2 14 -2 13 -13 -4 -52 26 -52 40 0 7 -5 10 -10 7 -5 -3 -10
1 -10 9 0 9 -4 16 -10 16 -13 0 -70 57 -70 71 0 6 -7 8 -16 5 -10 -4 -23 2
-34 14 -9 11 -20 17 -24 13 -3 -3 -6 1 -6 9 0 9 -12 23 -26 33 -15 9 -24 13
-21 8 4 -5 0 -10 -8 -10 -8 0 -12 4 -9 8 6 11 -34 31 -46 24 -6 -3 -10 3 -10
15 0 12 -4 19 -9 16 -5 -4 -11 -1 -13 4 -2 6 -13 12 -25 13 -12 0 -19 5 -17 9
3 4 -4 8 -15 8 -12 0 -21 5 -21 11 0 5 -4 8 -9 5 -5 -4 -11 -1 -13 6 -2 6 -14
13 -27 15 -16 2 -20 -1 -15 -9 4 -7 -2 -5 -13 5 -11 9 -23 14 -26 10 -4 -3 -7
-1 -7 5 0 7 -9 12 -19 12 -10 0 -21 6 -24 14 -3 8 -19 12 -44 11 -27 -1 -43 4
-55 18 -13 14 -18 16 -18 6 0 -12 -2 -12 -9 0 -6 9 -11 10 -15 2 -4 -6 -12
-11 -17 -11 -6 0 -7 5 -3 12 4 6 3 8 -4 5 -12 -8 -44 2 -38 12 2 3 -30 6 -72
6 -84 -1 -105 2 -96 16 3 5 -4498 9 -10935 9 -6018 0 -10942 -3 -10942 -7z
m97 -998 c55 1 105 5 111 8 7 4 14 4 16 0 6 -10 689 -9 704 0 6 4 14 4 16 -1
6 -9 209 -8 225 2 6 3 13 3 15 -1 6 -10 689 -9 704 0 6 4 14 4 16 -1 6 -9 209
-8 225 2 6 3 13 3 15 -1 6 -10 209 -9 225 0 6 4 13 4 15 0 6 -10 289 -9 304 0
7 4 14 4 16 0 6 -10 289 -9 304 0 7 4 14 4 16 0 6 -10 289 -9 304 0 7 4 14 4
16 0 6 -10 449 -9 464 0 7 4 14 4 16 -1 6 -9 209 -8 225 2 6 3 13 3 15 -1 6
-10 689 -9 704 0 6 4 14 4 16 -1 6 -9 209 -8 225 2 6 3 13 3 15 -1 6 -10 689
-9 704 0 6 4 14 4 16 -1 6 -9 209 -8 225 2 6 3 13 3 15 -1 6 -10 369 -9 384 0
7 4 14 4 16 -1 6 -9 209 -8 225 2 6 3 13 3 15 -1 6 -10 689 -9 704 0 6 4 14 4
16 -1 6 -9 209 -8 225 2 6 3 13 3 15 -1 6 -10 689 -9 704 0 6 4 14 4 16 -1 6
-9 209 -8 225 2 6 3 13 3 15 -1 6 -10 689 -9 704 0 6 4 14 4 16 -1 6 -9 209
-8 225 2 6 3 13 3 15 -1 6 -10 1008 -10 1024 0 6 4 14 4 16 -1 6 -9 209 -8
225 2 6 3 13 3 15 -1 6 -10 528 -10 544 0 6 4 14 4 16 0 6 -10 289 -9 304 0 7
4 14 4 16 0 6 -10 289 -9 304 0 7 4 14 4 16 0 6 -10 289 -9 304 0 7 4 14 4 16
0 6 -10 449 -9 464 0 7 4 14 4 16 -1 6 -9 209 -8 225 2 6 3 13 3 15 -1 6 -10
689 -9 704 0 6 4 14 4 16 -1 6 -9 209 -8 225 2 6 3 13 3 15 -1 6 -10 689 -9
704 0 6 4 14 4 16 -1 6 -9 209 -8 225 2 6 3 13 3 15 -1 6 -10 209 -9 225 0 6
4 13 4 15 0 6 -10 289 -9 304 0 7 4 14 4 16 0 6 -10 289 -9 304 0 7 4 14 4 16
0 6 -10 289 -9 304 0 7 4 14 4 16 0 6 -10 768 -9 784 0 6 4 14 4 16 -1 6 -9
209 -8 225 2 6 3 13 3 15 -1 6 -10 1008 -10 1024 0 6 4 14 4 16 -1 6 -9 209
-8 225 2 6 3 13 3 15 -1 6 -10 689 -9 704 0 6 4 14 4 16 -1 6 -9 209 -8 225 2
6 3 13 3 15 -1 6 -10 689 -9 704 0 6 4 14 4 16 -1 6 -9 209 -8 225 2 6 3 13 3
15 -1 6 -10 689 -9 704 0 6 4 14 4 16 -1 6 -9 209 -8 225 2 6 3 13 3 15 -1 6
-10 374 -9 383 0 4 4 12 3 18 -1 17 -10 230 -8 238 3 5 6 8 3 8 -6 0 -22 41
-40 64 -27 13 8 21 7 27 -3 5 -8 9 -10 9 -6 0 4 11 -4 24 -18 13 -14 33 -27
44 -28 14 -1 19 -7 17 -24 -1 -13 0 -22 2 -19 3 2 14 -5 26 -17 18 -18 22 -34
22 -87 1 -36 4 -71 8 -77 5 -7 4 -13 -1 -13 -5 0 -9 -18 -8 -40 0 -22 5 -40
10 -40 5 0 4 -6 -2 -13 -12 -14 -11 -35 1 -54 5 -7 5 -13 0 -13 -10 0 -10
-211 1 -228 4 -7 4 -12 -1 -12 -10 0 -10 -211 1 -228 4 -7 4 -12 -1 -12 -10 0
-10 -211 1 -228 4 -7 4 -12 -1 -12 -10 0 -10 -211 1 -228 4 -7 4 -12 -1 -12
-10 0 -10 -211 1 -228 4 -7 4 -12 -1 -12 -10 0 -10 -211 1 -228 4 -7 4 -12 -1
-12 -10 0 -10 -211 1 -228 4 -7 4 -12 -1 -12 -10 0 -9 -292 1 -308 4 -7 4 -12
-1 -12 -10 0 -10 -211 1 -228 4 -7 4 -12 -1 -12 -10 0 -10 -211 1 -228 4 -7 4
-12 -1 -12 -10 0 -10 -211 1 -228 4 -7 4 -12 -1 -12 -10 0 -10 -211 1 -228 4
-7 4 -12 -1 -12 -10 0 -9 -292 1 -308 4 -7 4 -12 -1 -12 -10 0 -10 -211 1
-228 4 -7 4 -12 -1 -12 -10 0 -10 -211 1 -228 4 -7 4 -12 -1 -12 -10 0 -10
-211 1 -228 4 -7 4 -12 -1 -12 -10 0 -10 -211 1 -228 4 -7 4 -12 -1 -12 -10 0
-9 -292 1 -308 4 -7 4 -12 -1 -12 -10 0 -10 -211 1 -228 4 -7 4 -12 -1 -12
-10 0 -10 -211 1 -228 4 -7 4 -12 -1 -12 -10 0 -10 -211 1 -228 4 -7 4 -12 -1
-12 -10 0 -10 -211 1 -228 4 -7 3 -12 -1 -12 -5 0 -8 -36 -8 -80 0 -44 4 -80
9 -80 5 0 4 -6 -2 -13 -12 -14 -11 -35 1 -54 5 -7 5 -13 0 -13 -10 0 -10 -211
1 -228 4 -7 4 -12 -1 -12 -10 0 -10 -211 1 -228 4 -7 3 -12 -2 -12 -5 0 -9
-18 -8 -40 0 -22 5 -40 10 -40 5 0 4 -6 -2 -13 -12 -14 -11 -35 1 -54 5 -7 5
-13 0 -13 -10 0 -10 -211 1 -228 4 -7 4 -12 -1 -12 -10 0 -10 -211 1 -228 4
-7 3 -12 -2 -12 -4 0 -8 -22 -8 -50 0 -27 5 -50 9 -50 6 0 5 -5 0 -12 -11 -16
-10 -128 1 -147 6 -8 5 -12 0 -8 -5 3 -9 -28 -9 -74 0 -43 4 -79 9 -79 5 0 4
-6 -1 -12 -11 -16 -10 -128 1 -147 5 -8 5 -12 0 -8 -11 6 -11 -263 0 -281 4
-7 4 -12 -1 -12 -10 0 -10 -211 1 -228 4 -7 4 -12 -1 -12 -10 0 -10 -211 1
-228 4 -7 4 -12 -1 -12 -10 0 -10 -211 1 -228 4 -7 4 -12 -1 -12 -10 0 -10
-211 1 -228 4 -7 4 -12 -1 -12 -4 0 -8 -40 -8 -90 0 -49 4 -90 9 -90 5 0 4 -6
-1 -12 -11 -16 -10 -128 1 -147 6 -8 5 -12 0 -8 -5 3 -9 -28 -9 -74 0 -43 4
-79 9 -79 5 0 4 -6 -1 -12 -11 -16 -10 -128 1 -147 6 -8 5 -12 0 -8 -6 3 -10
-23 -9 -64 0 -38 4 -69 9 -69 5 0 4 -6 -2 -13 -12 -14 -11 -35 1 -54 5 -7 5
-13 0 -13 -10 0 -10 -211 1 -228 4 -7 4 -12 -1 -12 -10 0 -10 -211 1 -228 4
-7 3 -12 -2 -12 -5 0 -9 -18 -8 -40 0 -22 5 -40 10 -40 5 0 4 -6 -2 -13 -12
-14 -11 -35 1 -54 5 -7 5 -13 0 -13 -10 0 -10 -211 1 -228 4 -7 4 -12 -1 -12
-10 0 -10 -211 1 -228 4 -7 4 -12 -1 -12 -10 0 -10 -211 1 -228 4 -7 4 -12 -1
-12 -10 0 -10 -211 1 -228 4 -7 4 -12 -1 -12 -10 0 -10 -211 1 -228 4 -7 4
-12 -1 -12 -10 0 -10 -211 1 -228 4 -7 4 -12 -1 -12 -10 0 -10 -211 1 -228 4
-7 4 -12 -1 -12 -10 0 -9 -292 1 -308 4 -7 4 -12 -1 -12 -10 0 -10 -211 1
-228 4 -7 4 -12 -1 -12 -10 0 -10 -211 1 -228 4 -7 4 -12 -1 -12 -10 0 -10
-211 1 -228 4 -7 3 -12 -2 -12 -5 0 -7 -41 -6 -91 3 -83 1 -92 -16 -96 -11 -3
-18 -9 -15 -13 3 -5 -6 -17 -20 -28 -13 -11 -21 -22 -18 -26 3 -3 -3 -6 -15
-6 -12 0 -21 -6 -19 -12 1 -7 -4 -12 -11 -10 -8 1 -11 -2 -8 -7 3 -5 -1 -14
-8 -20 -10 -8 -16 -9 -21 -1 -3 6 -11 7 -18 3 -18 -11 -77 -10 -77 2 0 6 -3 7
-8 0 -4 -6 -55 -10 -117 -10 -62 0 -113 4 -117 10 -5 7 -8 7 -8 0 0 -6 -45
-10 -115 -10 -70 0 -115 4 -115 10 0 7 -3 7 -8 0 -4 -6 -55 -10 -117 -10 -62
0 -113 4 -117 10 -5 7 -8 7 -8 0 0 -6 -45 -10 -115 -10 -70 0 -115 4 -115 10
0 7 -3 7 -8 0 -4 -6 -55 -10 -117 -10 -62 0 -113 4 -117 10 -5 7 -8 7 -8 0 0
-6 -45 -10 -115 -10 -70 0 -115 4 -115 10 0 7 -3 7 -8 0 -4 -6 -55 -10 -117
-10 -62 0 -113 4 -117 10 -5 7 -8 7 -8 0 0 -6 -45 -10 -115 -10 -70 0 -115 4
-115 10 0 7 -3 7 -8 0 -4 -6 -55 -10 -117 -10 -62 0 -113 4 -117 10 -5 7 -8 7
-8 0 0 -6 -45 -10 -115 -10 -70 0 -115 4 -115 10 0 7 -3 7 -8 0 -4 -6 -55 -10
-117 -10 -62 0 -113 4 -117 10 -5 7 -8 7 -8 0 0 -6 -45 -10 -115 -10 -70 0
-115 4 -115 10 0 7 -3 7 -8 0 -4 -6 -55 -10 -117 -10 -62 0 -113 4 -117 10 -5
7 -8 7 -8 0 0 -6 -45 -10 -115 -10 -70 0 -115 4 -115 10 0 7 -3 7 -8 0 -4 -6
-55 -10 -117 -10 -62 0 -113 4 -117 10 -5 7 -8 7 -8 0 0 -6 -45 -10 -115 -10
-70 0 -115 4 -115 10 0 7 -3 7 -8 0 -4 -6 -55 -10 -117 -10 -62 0 -113 4 -117
10 -5 7 -8 7 -8 0 0 -6 -45 -10 -115 -10 -70 0 -115 4 -115 10 0 7 -3 7 -8 0
-4 -6 -55 -10 -117 -10 -62 0 -113 4 -117 10 -5 7 -8 7 -8 0 0 -6 -45 -10
-115 -10 -70 0 -115 4 -115 10 0 7 -3 7 -8 0 -4 -6 -55 -10 -117 -10 -62 0
-113 4 -117 10 -5 7 -8 7 -8 0 0 -6 -45 -10 -115 -10 -70 0 -115 4 -115 10 0
7 -3 7 -8 0 -4 -6 -55 -10 -117 -10 -62 0 -113 4 -117 10 -5 7 -8 7 -8 0 0 -6
-45 -10 -115 -10 -70 0 -115 4 -115 10 0 7 -3 7 -8 0 -4 -6 -55 -10 -117 -10
-62 0 -113 4 -117 10 -5 7 -8 7 -8 0 0 -6 -45 -10 -115 -10 -70 0 -115 4 -115
10 0 7 -3 7 -8 0 -4 -6 -55 -10 -117 -10 -62 0 -113 4 -117 10 -5 7 -8 7 -8 0
0 -6 -45 -10 -115 -10 -70 0 -115 4 -115 10 0 7 -3 7 -8 0 -4 -6 -55 -10 -117
-10 -62 0 -113 4 -117 10 -5 7 -8 7 -8 0 0 -6 -45 -10 -115 -10 -70 0 -115 4
-115 10 0 7 -3 7 -8 0 -4 -6 -55 -10 -117 -10 -62 0 -113 4 -117 10 -5 7 -8 7
-8 0 0 -6 -45 -10 -115 -10 -70 0 -115 4 -115 10 0 7 -3 7 -8 0 -4 -6 -55 -10
-117 -10 -62 0 -113 4 -117 10 -5 7 -8 7 -8 0 0 -6 -45 -10 -115 -10 -70 0
-115 4 -115 10 0 7 -3 7 -8 0 -4 -6 -55 -10 -117 -10 -62 0 -113 4 -117 10 -5
7 -8 7 -8 0 0 -6 -45 -10 -115 -10 -70 0 -115 4 -115 10 0 7 -3 7 -8 0 -4 -6
-55 -10 -117 -10 -62 0 -113 4 -117 10 -5 7 -8 7 -8 0 0 -6 -45 -10 -115 -10
-70 0 -115 4 -115 10 0 7 -3 7 -8 0 -4 -6 -55 -10 -117 -10 -62 0 -113 4 -117
10 -5 7 -8 7 -8 0 0 -6 -45 -10 -115 -10 -70 0 -115 4 -115 10 0 7 -3 7 -8 0
-4 -6 -55 -10 -117 -10 -62 0 -113 4 -117 10 -5 7 -8 7 -8 0 0 -6 -45 -10
-115 -10 -70 0 -115 4 -115 10 0 7 -3 7 -8 0 -4 -6 -55 -10 -117 -10 -62 0
-113 4 -117 10 -5 7 -8 7 -8 0 0 -6 -84 -10 -232 -10 -144 0 -236 4 -240 10
-5 7 -8 7 -8 0 0 -6 -45 -10 -115 -10 -70 0 -115 4 -115 10 0 7 -3 7 -8 0 -4
-6 -55 -10 -117 -10 -62 0 -113 4 -117 10 -5 7 -8 7 -8 0 0 -6 -45 -10 -115
-10 -70 0 -115 4 -115 10 0 7 -3 7 -8 0 -4 -6 -55 -10 -117 -10 -62 0 -113 4
-117 10 -5 7 -8 7 -8 0 0 -6 -45 -10 -115 -10 -70 0 -115 4 -115 10 0 7 -3 7
-8 0 -4 -6 -55 -10 -117 -10 -62 0 -113 4 -117 10 -5 7 -8 7 -8 0 0 -6 -85
-10 -235 -10 -150 0 -235 4 -235 10 0 7 -3 7 -8 0 -4 -6 -55 -10 -117 -10 -62
0 -113 4 -117 10 -5 7 -8 7 -8 0 0 -6 -45 -10 -115 -10 -70 0 -115 4 -115 10
0 7 -3 7 -8 0 -4 -6 -55 -10 -117 -10 -62 0 -113 4 -117 10 -5 7 -8 7 -8 0 0
-6 -45 -10 -115 -10 -70 0 -115 4 -115 10 0 7 -3 7 -8 0 -4 -6 -55 -10 -117
-10 -62 0 -113 4 -117 10 -5 7 -8 7 -8 0 0 -6 -45 -10 -115 -10 -70 0 -115 4
-115 10 0 7 -3 7 -8 0 -4 -6 -55 -10 -117 -10 -62 0 -113 4 -117 10 -5 7 -8 7
-8 0 0 -6 -45 -10 -115 -10 -70 0 -115 4 -115 10 0 7 -3 7 -8 0 -4 -6 -55 -10
-117 -10 -62 0 -113 4 -117 10 -5 7 -8 7 -8 0 0 -6 -45 -10 -115 -10 -70 0
-115 4 -115 10 0 7 -3 7 -8 0 -4 -6 -55 -10 -117 -10 -62 0 -113 4 -117 10 -5
7 -8 7 -8 0 0 -6 -45 -10 -115 -10 -70 0 -115 4 -115 10 0 7 -3 7 -8 0 -4 -6
-55 -10 -117 -10 -62 0 -113 4 -117 10 -5 7 -8 7 -8 0 0 -6 -45 -10 -115 -10
-70 0 -115 4 -115 10 0 7 -3 7 -8 0 -4 -6 -55 -10 -117 -10 -62 0 -113 4 -117
10 -5 7 -8 7 -8 0 0 -6 -45 -10 -115 -10 -70 0 -115 4 -115 10 0 7 -3 7 -8 0
-4 -6 -55 -10 -117 -10 -62 0 -113 4 -117 10 -5 7 -8 7 -8 0 0 -6 -45 -10
-115 -10 -70 0 -115 4 -115 10 0 7 -3 7 -8 0 -4 -6 -55 -10 -117 -10 -62 0
-113 4 -117 10 -5 7 -8 7 -8 0 0 -6 -45 -10 -115 -10 -70 0 -115 4 -115 10 0
7 -3 7 -8 0 -4 -6 -55 -10 -117 -10 -62 0 -113 4 -117 10 -5 7 -8 7 -8 0 0 -6
-45 -10 -115 -10 -70 0 -115 4 -115 10 0 7 -3 7 -8 0 -4 -6 -55 -10 -117 -10
-62 0 -113 4 -117 10 -5 7 -8 7 -8 0 0 -6 -45 -10 -115 -10 -70 0 -115 4 -115
10 0 7 -3 7 -8 0 -4 -6 -55 -10 -117 -10 -62 0 -113 4 -117 10 -5 7 -8 7 -8 0
0 -6 -45 -10 -115 -10 -70 0 -115 4 -115 10 0 7 -3 7 -8 0 -4 -6 -55 -10 -117
-10 -62 0 -113 4 -117 10 -5 7 -8 7 -8 0 0 -6 -45 -10 -115 -10 -70 0 -115 4
-115 10 0 7 -3 7 -8 0 -4 -6 -55 -10 -117 -10 -62 0 -113 4 -117 10 -5 7 -8 7
-8 0 0 -6 -45 -10 -115 -10 -70 0 -115 4 -115 10 0 7 -3 7 -8 0 -4 -6 -55 -10
-117 -10 -62 0 -113 4 -117 10 -5 7 -8 7 -8 0 0 -6 -45 -10 -115 -10 -70 0
-115 4 -115 10 0 7 -3 7 -8 0 -4 -6 -55 -10 -117 -10 -62 0 -113 4 -117 10 -5
7 -8 7 -8 0 0 -6 -45 -10 -115 -10 -70 0 -115 4 -115 10 0 7 -3 7 -8 0 -4 -6
-55 -10 -117 -10 -62 0 -113 4 -117 10 -5 7 -8 7 -8 0 0 -6 -45 -10 -115 -10
-70 0 -115 4 -115 10 0 7 -3 7 -8 0 -4 -6 -55 -10 -117 -10 -62 0 -113 4 -117
10 -5 7 -8 7 -8 0 0 -6 -45 -10 -115 -10 -70 0 -115 4 -115 10 0 7 -3 7 -8 0
-4 -6 -55 -10 -117 -10 -62 0 -113 4 -117 10 -5 7 -8 7 -8 0 0 -15 -103 -13
-113 3 -5 7 -12 10 -16 8 -5 -3 -13 6 -20 20 -9 22 -14 24 -26 14 -15 -12 -21
-3 -16 24 1 4 -11 19 -26 32 l-28 24 -1 6734 c0 3704 2 6734 5 6733 11 -4 52
44 46 53 -3 5 10 16 30 24 19 8 38 22 41 30 3 8 12 17 20 20 9 4 12 2 8 -5 -4
-7 2 -6 17 1 17 10 24 10 27 1 6 -17 20 -13 26 7 5 15 16 18 52 18 25 -1 48 3
51 7 3 4 10 4 16 -1 7 -4 57 -8 113 -7z"/>
<path d="M17018 28235 c-2 -2 -28 -6 -58 -9 -126 -15 -130 -16 -131 -45 -1
-39 2 -212 6 -341 15 -536 16 -710 3 -711 -7 0 -20 -2 -28 -4 -8 -1 -46 -5
-85 -9 -69 -7 -140 -15 -181 -21 -20 -3 -19 1 13 53 120 200 97 548 -52 772
-118 178 -301 252 -507 204 -289 -68 -434 -355 -363 -717 33 -167 105 -297
218 -394 20 -18 32 -35 27 -38 -6 -3 -10 -4 -10 -2 0 3 -51 -8 -112 -25 -62
-16 -138 -36 -168 -43 -43 -11 -249 -75 -362 -111 -13 -5 -26 24 -73 173 -31
98 -58 183 -60 190 -3 8 58 32 170 67 95 31 178 56 184 56 15 0 15 0 -15 96
-15 46 -31 84 -38 84 -6 0 -77 -22 -158 -49 -80 -27 -160 -52 -176 -56 l-30
-6 -47 146 c-25 81 -45 148 -43 149 4 4 139 48 152 50 6 1 63 19 127 40 116
38 117 39 109 65 -5 14 -16 51 -25 81 -9 30 -20 58 -24 62 -3 4 -47 -6 -96
-22 -50 -17 -103 -34 -120 -39 -236 -74 -385 -124 -385 -128 0 -6 98 -316 130
-413 10 -30 46 -143 80 -250 33 -107 74 -233 90 -280 16 -47 26 -88 22 -92 -9
-8 -185 -79 -188 -75 -2 2 -61 123 -204 422 -32 66 -103 214 -159 329 -55 115
-101 213 -101 217 0 17 -32 8 -110 -31 -44 -22 -80 -42 -80 -44 0 -13 291
-603 338 -686 15 -25 20 -40 12 -34 -28 20 -115 89 -120 95 -4 4 -397 279
-601 420 -25 18 -27 17 -122 -29 -54 -25 -97 -49 -97 -53 0 -5 48 -106 106
-226 319 -655 366 -755 356 -765 -5 -5 -42 -28 -83 -53 -82 -48 -81 -48 -121
22 -12 22 -135 225 -272 451 l-248 409 -89 -54 c-49 -30 -89 -61 -89 -69 0 -8
5 -14 10 -14 6 0 10 -4 10 -9 0 -4 67 -118 148 -252 180 -297 323 -533 351
-580 11 -19 25 -41 30 -49 8 -13 -7 -28 -77 -75 -179 -121 -497 -367 -616
-477 -11 -10 -23 -18 -26 -18 -7 0 -38 32 -178 187 l-92 101 81 74 c45 40 93
84 108 97 14 13 43 39 64 58 l38 36 -24 26 c-14 14 -42 45 -63 68 l-39 42
-143 -131 -143 -130 -32 34 c-102 107 -179 200 -171 207 9 8 77 69 222 200
l81 73 -61 69 -61 68 -26 -20 c-14 -12 -66 -57 -115 -102 -48 -45 -92 -84 -96
-87 -5 -3 -48 -42 -97 -86 -48 -45 -100 -92 -115 -105 l-28 -24 43 -46 c23
-25 76 -83 117 -129 41 -46 82 -91 90 -100 8 -9 53 -58 100 -110 47 -52 87
-97 90 -100 3 -3 41 -45 85 -95 79 -90 116 -130 174 -193 l30 -33 -121 -119
c-66 -66 -121 -120 -123 -120 -2 0 -2 8 -1 18 4 26 -22 132 -45 182 -84 180
-287 357 -484 421 -54 18 -93 23 -170 23 -95 0 -104 -2 -180 -38 -244 -118
-346 -397 -235 -643 69 -152 203 -290 362 -373 93 -49 196 -77 278 -76 33 1
60 0 60 -2 0 -2 -21 -31 -47 -65 -92 -119 -257 -365 -348 -517 -38 -63 -72
-119 -76 -124 -7 -7 -49 13 -224 109 -22 12 -158 86 -302 164 -213 116 -261
145 -256 159 4 9 35 68 70 131 35 63 63 117 63 121 0 7 -148 90 -159 90 -5 0
-115 -198 -252 -455 -21 -38 -62 -115 -93 -170 l-54 -99 76 -43 c76 -42 102
-51 102 -35 0 8 126 241 135 250 2 2 32 -11 67 -30 35 -19 97 -52 138 -75 138
-74 184 -100 275 -148 50 -26 95 -51 100 -55 6 -4 51 -28 100 -55 50 -26 93
-51 98 -54 4 -4 -23 -70 -61 -147 -38 -76 -77 -158 -87 -180 -17 -41 -19 -42
-49 -32 -17 5 -40 13 -51 18 -23 9 -51 20 -430 155 -148 53 -292 104 -320 115
-27 10 -68 24 -90 31 -22 6 -44 14 -50 18 -5 3 -14 6 -20 7 -5 1 -17 5 -26 9
-14 5 -23 -10 -48 -80 -36 -101 -36 -101 -13 -110 61 -24 583 -208 655 -230
48 -16 86 -29 85 -30 -2 -2 -34 -6 -73 -10 -96 -9 -147 -16 -226 -30 -9 -2
-32 -6 -50 -9 -65 -10 -334 -56 -354 -60 -11 -2 -59 -9 -108 -16 -48 -7 -92
-19 -97 -25 -5 -6 -25 -54 -44 -107 l-34 -95 36 -12 c20 -7 60 -21 87 -31 28
-10 178 -64 335 -120 157 -56 294 -105 305 -110 11 -5 73 -27 138 -49 65 -23
122 -43 127 -46 4 -3 0 -35 -9 -72 -19 -72 -15 -69 -81 -61 -26 3 -30 -7 -54
-147 -3 -16 -8 -41 -11 -55 -3 -14 -8 -41 -11 -60 -11 -66 -32 -161 -37 -166
-3 -3 -31 -1 -63 5 -33 6 -77 13 -99 17 -22 3 -43 8 -46 9 -3 2 -28 7 -55 10
-27 4 -52 10 -56 14 -8 7 -2 44 41 275 16 82 18 112 9 117 -9 6 -82 20 -103
20 -2 0 -18 4 -35 9 -26 8 -31 6 -35 -13 -7 -34 -34 -178 -39 -212 -3 -16 -11
-58 -17 -92 -15 -74 -7 -72 -159 -42 -58 11 -113 21 -123 22 -19 1 -19 8 2
112 6 28 12 64 15 80 2 17 9 55 16 85 6 30 13 71 16 90 3 19 8 38 10 42 5 7
-43 22 -111 34 -22 4 -48 8 -57 10 -11 2 -18 -4 -19 -14 0 -9 -2 -24 -4 -32
-5 -26 -57 -294 -61 -320 -3 -14 -12 -61 -20 -105 -9 -44 -18 -96 -21 -117
l-5 -36 54 -11 c29 -6 139 -27 243 -47 180 -33 261 -49 498 -94 201 -38 256
-48 270 -49 5 -1 6 -18 3 -38 -3 -21 -8 -60 -11 -88 -3 -27 -8 -52 -13 -56 -4
-4 -52 -10 -107 -14 -55 -4 -113 -8 -130 -10 -42 -5 -146 -14 -230 -20 -38 -3
-86 -8 -105 -10 -19 -2 -75 -7 -125 -10 -49 -3 -101 -8 -115 -10 -14 -3 -63
-8 -110 -11 -47 -3 -94 -7 -105 -9 -11 -1 -36 -3 -57 -4 l-36 -1 3 -126 c2
-69 5 -126 6 -128 2 -1 78 -24 169 -50 218 -64 255 -75 320 -96 30 -10 114
-33 185 -50 72 -18 137 -34 145 -37 13 -5 -67 -35 -125 -47 -21 -5 -337 -112
-555 -188 l-125 -43 2 -124 c1 -68 3 -125 5 -126 2 -2 91 -6 198 -9 107 -4
231 -9 275 -11 44 -2 143 -6 220 -9 212 -8 400 -17 402 -20 3 -2 8 -43 19
-131 11 -101 14 -118 25 -179 5 -32 8 -60 6 -62 -5 -5 -24 -10 -127 -29 -41
-8 -100 -19 -130 -25 -30 -5 -66 -12 -80 -15 -14 -3 -47 -9 -75 -15 -27 -5
-63 -12 -80 -15 -16 -3 -41 -7 -55 -10 -14 -3 -40 -8 -57 -11 -18 -3 -87 -16
-153 -28 l-119 -23 -11 51 c-6 28 -13 62 -15 76 -3 14 -10 59 -17 100 l-10 76
-87 -14 c-47 -8 -90 -18 -95 -23 -5 -4 0 -55 12 -121 12 -62 24 -124 26 -138
3 -14 12 -61 21 -104 8 -44 17 -91 20 -105 2 -14 9 -51 15 -81 15 -73 29 -156
36 -205 3 -22 10 -44 14 -49 5 -5 47 -1 100 9 78 15 90 20 85 35 -6 19 -7 24
-21 100 -4 25 -8 47 -9 50 -4 15 -19 107 -20 119 0 8 7 15 15 17 8 1 51 9 95
18 44 8 95 18 112 21 18 3 78 14 133 25 55 11 115 22 133 25 29 6 183 35 262
50 17 3 43 8 59 10 15 2 36 7 46 10 15 5 21 -8 40 -92 12 -54 30 -130 40 -170
l18 -72 -137 -90 c-155 -102 -205 -147 -233 -209 l-19 -42 -32 24 c-89 67
-223 79 -331 28 -85 -40 -120 -73 -156 -146 -25 -51 -31 -75 -31 -127 0 -117
29 -220 106 -384 67 -142 39 -136 265 -54 107 38 231 83 275 98 156 56 500
180 516 186 12 4 22 -9 42 -57 15 -35 27 -67 27 -71 0 -5 -141 -151 -314 -325
-173 -174 -354 -358 -404 -408 l-89 -91 53 -99 c30 -54 55 -102 56 -107 2 -4
104 13 228 38 124 25 236 48 250 50 14 3 34 7 45 9 195 42 445 93 495 103 14
2 45 9 69 14 24 5 44 8 45 7 14 -32 221 -328 331 -473 8 -10 15 -22 15 -25 -1
-3 -53 -43 -117 -90 -63 -47 -122 -92 -131 -100 -13 -13 -18 -10 -40 20 -80
108 -210 207 -298 225 -160 33 -347 -60 -424 -211 -21 -42 -25 -62 -25 -139 1
-76 5 -99 28 -148 37 -80 121 -197 210 -291 l74 -79 428 322 c235 177 431 321
435 319 4 -2 26 -25 49 -52 41 -47 42 -49 24 -70 -10 -11 -24 -25 -30 -29 -7
-4 -13 -12 -13 -16 0 -5 71 -79 158 -165 l157 -156 -120 -120 -120 -120 -142
140 -142 141 -65 -67 -66 -67 142 -139 141 -139 -49 -51 c-27 -27 -73 -74
-102 -103 l-54 -54 -150 149 -151 148 -64 -65 -64 -66 78 -81 c43 -45 145
-146 226 -226 l148 -145 382 388 c379 384 383 388 403 369 11 -10 44 -40 74
-67 30 -26 68 -59 85 -74 16 -14 47 -41 68 -58 l39 -33 -36 0 c-125 0 -279
-77 -389 -194 -93 -99 -174 -240 -197 -341 -11 -51 -14 -154 -5 -198 26 -128
131 -268 286 -382 71 -52 219 -142 243 -147 9 -2 62 61 145 172 71 96 133 180
138 185 4 6 85 113 178 239 94 127 175 236 180 243 9 11 39 -4 155 -75 255
-157 537 -308 750 -402 47 -21 108 -47 135 -60 383 -170 1043 -372 1395 -426
19 -3 51 -9 70 -14 19 -4 58 -12 85 -16 28 -4 57 -8 65 -9 8 -2 38 -6 65 -9
28 -4 57 -9 65 -11 8 -2 47 -7 85 -11 39 -3 79 -8 90 -10 10 -2 49 -6 85 -10
36 -3 83 -7 105 -10 267 -25 1086 -25 1185 1 8 2 51 7 95 10 44 3 91 7 105 9
14 2 50 7 80 10 30 4 66 9 80 11 14 2 45 7 70 10 25 3 81 12 125 20 44 8 96
17 115 20 61 11 273 56 335 72 33 8 68 17 77 18 35 7 215 57 313 86 432 131
917 334 1280 536 50 28 113 63 140 78 153 86 416 258 598 393 70 52 129 93
131 91 142 -171 246 -302 250 -316 3 -10 17 -79 31 -153 14 -74 30 -153 35
-175 5 -22 12 -53 15 -70 13 -69 15 -81 20 -105 3 -14 15 -76 26 -138 l22
-112 36 27 c44 34 75 59 118 98 l34 30 -32 120 c-59 221 -77 290 -93 340 -9
28 -16 53 -16 57 0 4 107 -47 237 -112 130 -66 241 -120 247 -120 18 0 187
143 179 150 -7 6 -102 49 -413 187 -98 44 -114 51 -200 90 l-86 40 -122 149
-122 149 32 29 c18 16 47 41 63 55 116 100 191 168 200 178 7 9 23 1 61 -35
28 -26 99 -92 159 -147 61 -55 132 -121 160 -147 l51 -47 75 81 c40 45 81 89
89 99 8 9 36 38 63 66 54 56 57 44 -38 132 l-48 44 -66 -72 c-65 -70 -67 -72
-86 -54 -11 10 -59 53 -107 97 l-87 79 16 30 c25 49 123 141 178 167 41 20 66
25 136 25 80 0 91 -3 164 -40 103 -52 210 -157 257 -252 30 -61 33 -76 32
-153 0 -73 -4 -94 -29 -145 -37 -75 -150 -190 -222 -225 l-52 -25 47 -77 c27
-44 54 -78 63 -78 27 0 135 76 198 139 183 184 246 399 176 606 -87 260 -368
474 -617 471 -32 -1 -58 -1 -58 1 0 1 50 64 111 140 61 76 123 157 138 180
l28 43 22 -65 c12 -36 28 -75 34 -88 96 -177 307 -340 509 -393 183 -47 348
-6 468 116 160 162 191 390 79 588 -37 67 -40 70 -109 141 -157 162 -366 254
-555 246 -41 -2 -80 -7 -85 -10 -14 -9 -12 7 4 30 7 11 33 56 56 100 24 44 46
84 50 88 3 4 26 -1 51 -12 l44 -20 27 57 c15 31 28 60 28 65 0 4 9 26 19 50
11 23 36 84 57 135 21 50 44 92 50 92 7 0 42 -13 79 -30 37 -16 73 -30 81 -30
8 0 14 -4 14 -10 0 -5 6 -10 14 -10 11 0 167 -63 271 -109 11 -5 58 -25 105
-44 47 -20 128 -53 180 -75 52 -22 112 -47 133 -56 l37 -15 20 42 c38 84 61
150 53 158 -4 4 -57 27 -118 52 -60 25 -278 115 -483 201 -205 86 -376 156
-381 156 -10 0 -3 38 9 55 4 6 27 67 51 138 24 70 46 127 49 127 3 0 20 -23
39 -51 66 -97 185 -177 338 -227 383 -127 709 11 779 329 35 157 -12 321 -125
437 -56 58 -159 132 -184 132 -7 0 -17 4 -22 9 -12 11 -146 56 -195 66 -70 13
-225 14 -285 1 -34 -7 -87 -25 -119 -39 -32 -15 -60 -27 -62 -27 -1 0 0 12 3
28 2 15 15 86 27 157 l23 130 29 -1 c45 -2 258 -19 364 -29 30 -3 93 -7 140
-10 47 -3 105 -7 130 -10 47 -4 147 -13 240 -20 30 -2 85 -7 123 -10 l67 -7 1
29 c0 15 2 39 4 53 11 74 11 111 2 117 -5 3 -33 7 -61 9 -28 2 -76 6 -106 8
-30 3 -91 8 -135 11 -44 3 -100 8 -125 10 -87 8 -246 18 -307 19 -33 1 -59 4
-57 7 2 3 32 16 66 29 61 22 457 198 508 226 14 7 77 36 140 65 63 28 116 53
118 54 2 2 5 25 7 52 2 26 7 75 10 109 4 46 3 61 -7 61 -18 0 -183 13 -233 18
-37 4 -126 11 -247 20 -25 2 -79 6 -120 9 -155 14 -175 15 -253 21 -44 3 -107
8 -140 12 -33 3 -68 6 -77 5 -18 -1 -19 1 -20 166 -1 38 5 46 35 48 12 1 63 5
112 9 50 3 115 8 145 10 30 2 84 6 120 10 108 9 156 13 247 20 49 4 104 8 123
10 19 2 80 7 135 11 55 3 107 8 115 10 8 1 23 3 33 3 17 1 18 8 13 74 -3 39
-5 87 -5 106 l-1 33 -102 -7 c-158 -11 -184 -13 -348 -27 -23 -2 -28 11 -34
100 -4 53 -9 113 -11 132 -3 19 -7 70 -10 113 l-5 77 28 1 c15 0 41 2 57 3 17
2 73 6 125 10 52 4 131 11 175 14 l80 7 -2 85 c-4 130 -5 132 -61 126 -26 -3
-83 -8 -127 -11 -44 -3 -105 -8 -135 -11 -30 -2 -82 -7 -115 -9 -33 -3 -89 -7
-125 -10 -36 -3 -94 -8 -130 -10 -36 -3 -90 -7 -120 -10 -107 -10 -226 -18
-264 -19 -44 -1 -46 3 -60 96 -8 52 -12 47 84 100 29 17 30 19 15 35 -55 55
-105 174 -112 271 -14 174 95 304 311 371 226 70 410 9 490 -162 33 -70 45
-125 43 -208 -2 -62 2 -73 24 -71 3 1 40 2 82 3 91 2 93 5 83 117 -25 286
-198 504 -443 558 -68 14 -183 12 -269 -5 -205 -42 -361 -139 -451 -279 l-35
-54 -40 114 c-22 62 -42 120 -45 129 -3 12 5 20 30 28 20 7 40 17 45 24 6 8
-18 70 -78 193 -48 99 -90 189 -93 200 -5 15 2 23 36 38 23 11 91 43 151 72
l110 53 17 -37 c32 -70 150 -316 153 -319 3 -3 155 64 164 72 2 2 -15 43 -39
92 -137 289 -131 273 -106 282 12 5 69 32 126 60 57 28 107 51 110 51 4 0 26
-42 51 -92 24 -51 64 -136 90 -189 l46 -97 82 39 c45 22 82 41 82 44 0 8 -245
523 -265 556 -9 14 -22 10 -106 -30 -52 -25 -147 -70 -210 -100 -62 -30 -213
-103 -334 -161 -338 -163 -329 -159 -342 -148 -7 6 -13 14 -13 18 0 8 -77 150
-156 288 -17 28 -17 34 -4 42 70 47 728 444 740 447 10 3 23 -10 38 -39 12
-24 30 -55 40 -69 9 -15 32 -52 50 -83 19 -31 38 -56 42 -56 5 0 43 21 85 47
71 44 75 47 62 67 -8 12 -103 167 -212 346 -108 179 -200 328 -204 332 -5 6
-135 -66 -160 -88 -2 -2 16 -36 40 -76 24 -40 46 -77 49 -83 3 -5 18 -30 34
-54 l29 -45 -22 -17 c-11 -9 -97 -64 -191 -120 -94 -57 -192 -117 -218 -133
-26 -16 -60 -37 -77 -46 -16 -10 -78 -47 -138 -84 -59 -36 -111 -66 -116 -66
-4 0 -30 33 -56 73 -88 133 -317 441 -355 477 -3 3 -11 13 -19 23 -16 20 -29
6 155 173 49 45 101 92 115 105 14 13 70 65 124 114 54 50 110 101 125 115 15
14 69 63 120 110 51 47 106 98 122 114 l29 29 -39 41 c-22 23 -51 53 -65 69
-13 15 -28 27 -33 27 -5 0 -31 -21 -59 -47 -27 -25 -97 -89 -154 -142 -57 -53
-118 -109 -135 -124 -17 -16 -77 -73 -133 -128 -56 -54 -104 -99 -107 -99 -3
0 6 24 18 53 13 29 74 205 136 392 61 187 114 347 117 355 24 70 25 68 -34
131 -31 33 -63 69 -70 79 -18 25 -20 24 -128 -75 -48 -44 -99 -91 -114 -104
-14 -13 -73 -68 -131 -121 -58 -53 -117 -108 -131 -121 -67 -60 -229 -209
-278 -256 l-55 -51 -36 30 c-19 16 -51 44 -71 61 -51 46 -90 79 -122 104 l-28
22 43 11 c126 31 232 94 329 196 148 157 233 346 228 509 -4 125 -46 222 -134
310 -134 134 -309 179 -485 126 -263 -81 -501 -398 -501 -668 0 -46 3 -89 8
-96 4 -6 -4 -4 -17 5 -14 9 -77 49 -140 89 -63 40 -116 73 -118 75 -2 1 73
127 166 280 93 154 219 362 281 464 l111 184 -33 19 c-17 11 -43 27 -57 37
-47 32 -92 52 -100 43 -5 -4 -17 -24 -28 -43 -11 -19 -104 -174 -207 -345
-103 -170 -217 -358 -253 -417 -35 -60 -69 -108 -74 -108 -6 0 -45 19 -87 43
-42 23 -118 62 -168 87 -51 25 -93 48 -93 52 0 6 53 117 265 553 53 110 101
210 106 223 5 12 12 22 16 21 5 0 67 -28 138 -63 72 -35 133 -61 137 -59 4 2
23 38 43 80 27 58 33 79 24 89 -6 8 -15 14 -19 14 -4 0 -121 56 -261 124 -331
161 -451 218 -454 214 -8 -9 -77 -169 -74 -171 2 -1 56 -27 119 -58 63 -30
123 -60 133 -65 17 -10 15 -15 -18 -83 -20 -40 -69 -141 -109 -224 -41 -84
-113 -232 -160 -331 -56 -116 -91 -176 -99 -173 -158 68 -282 117 -293 117
-13 0 -14 67 -8 468 4 257 7 516 8 576 l1 109 -115 37 -115 36 -73 -105 c-305
-441 -463 -669 -515 -748 -66 -99 -69 -100 -142 -82 l-45 11 5 67 c2 36 7 113
10 171 3 58 8 130 10 160 2 30 7 109 10 175 4 66 8 140 10 165 5 55 18 292 19
339 1 27 -3 35 -19 37 -37 4 -120 14 -176 20 -53 6 -57 5 -64 -17 -4 -13 -30
-71 -57 -129 -49 -102 -166 -355 -193 -415 -8 -16 -30 -70 -50 -120 -41 -100
-51 -116 -52 -82 -1 37 -12 116 -34 237 -11 63 -22 126 -24 140 -2 14 -10 59
-19 100 -17 88 -53 273 -60 314 -6 33 -11 39 -34 42 -50 8 -103 14 -159 20
-59 5 -62 5 -67 -18 -5 -20 -46 -242 -60 -318 -2 -14 -12 -63 -21 -110 -21
-107 -23 -119 -29 -150 -4 -26 -35 -190 -42 -225 -4 -19 -13 -72 -19 -105 -17
-93 -30 -146 -37 -151 -12 -8 -111 -1 -119 9 -3 4 -21 66 -39 137 -40 159 -78
246 -126 290 l-36 33 28 16 c145 77 188 328 81 468 -50 66 -102 96 -211 125
-21 6 -273 13 -278 8z m224 -185 c55 -16 95 -61 104 -118 5 -26 8 -53 7 -59 0
-7 -1 -21 -2 -31 -2 -33 -53 -99 -90 -117 -42 -21 -201 -36 -207 -20 -9 29 -9
345 0 349 21 9 152 6 188 -4z m-1057 -119 c125 -58 212 -232 222 -446 5 -93 2
-121 -16 -180 -41 -138 -126 -207 -249 -201 -167 9 -300 225 -303 493 -1 117
38 239 95 292 64 60 173 78 251 42z m1888 -226 c7 -41 25 -142 72 -405 39
-213 42 -190 -24 -184 -31 3 -65 7 -76 9 -11 2 -42 4 -69 4 l-49 1 8 43 c4 23
9 56 11 72 3 17 9 53 15 80 5 28 11 59 13 70 6 36 15 89 21 125 18 107 46 269
52 295 6 28 7 26 14 -20 3 -27 9 -68 12 -90z m642 33 c-2 -13 -6 -61 -9 -108
-3 -47 -8 -112 -11 -145 -2 -33 -7 -100 -11 -150 -3 -49 -7 -106 -9 -125 -1
-19 -3 -60 -4 -90 -2 -75 -9 -84 -57 -72 -21 6 -61 13 -89 17 -73 9 -120 17
-123 20 -2 1 13 36 31 76 19 41 51 108 70 149 19 41 50 109 69 150 57 120 93
202 114 252 20 50 35 63 29 26z m960 -130 c-3 -18 -7 -113 -9 -211 -2 -98 -5
-180 -8 -182 -4 -5 -204 57 -213 66 -3 4 29 58 72 120 43 63 96 142 118 176
22 35 41 63 42 63 2 0 1 -15 -2 -32z m-2437 -103 c45 -27 71 -83 107 -226 l32
-129 -91 -1 c-50 0 -119 -2 -153 -4 -35 -2 -64 -1 -64 3 -4 20 -12 340 -10
368 2 18 144 10 179 -11z m2263 -429 l146 -47 -1 -120 c-1 -102 -3 -119 -16
-116 -16 5 -387 116 -408 123 -15 4 -18 -2 73 136 28 42 52 75 55 73 3 -1 71
-23 151 -49z m-5359 -241 c37 -23 427 -299 425 -301 -1 -1 -80 -40 -175 -88
l-173 -86 -53 113 c-29 61 -101 208 -160 326 -58 118 -106 216 -106 218 0 1
51 -37 113 -85 62 -48 120 -91 129 -97z m7834 -245 c73 -44 114 -109 119 -188
9 -157 -100 -357 -262 -481 -84 -64 -204 -95 -272 -70 -156 59 -202 226 -113
419 71 156 223 302 352 340 48 14 135 4 176 -20z m681 -807 c-29 -49 -81 -192
-188 -518 -45 -137 -84 -252 -86 -254 -2 -3 -63 58 -137 135 l-134 139 27 25
c15 14 76 70 136 125 104 95 147 134 310 288 68 64 81 75 72 60z m-10732 -261
c227 -72 431 -299 427 -473 -3 -161 -149 -257 -321 -212 -193 49 -412 264
-437 428 -17 117 56 232 167 263 39 11 120 8 164 -6z m-661 -2484 c-14 -35
-43 -118 -66 -185 -22 -68 -43 -123 -47 -123 -3 0 -51 16 -106 36 -278 98
-494 174 -533 185 -49 14 -47 21 6 26 61 5 262 33 347 49 44 7 98 16 120 20
68 9 99 15 115 19 8 2 35 6 60 10 41 5 122 21 127 24 1 0 -10 -27 -23 -61z
m13063 -1200 c0 -17 13 -181 18 -233 17 -171 17 -175 -7 -176 -13 0 -32 -2
-43 -4 -21 -3 -131 -12 -272 -21 l-83 -6 -1 43 c0 24 -2 58 -4 74 -2 17 -6 57
-9 90 -3 33 -10 93 -16 134 -6 41 -9 75 -7 77 3 3 81 10 232 20 55 3 101 7
102 8 2 1 22 3 46 4 30 2 44 -1 44 -10z m-13431 -630 c-2 -71 -6 -131 -8 -132
-2 -2 -66 17 -143 40 -77 24 -149 46 -160 48 -11 3 -99 28 -195 56 -96 29
-186 54 -200 56 -32 7 -39 14 -14 15 27 1 113 7 208 14 44 3 113 8 151 11 39
2 95 7 125 9 30 3 91 8 135 11 44 4 82 8 84 10 17 15 22 -25 17 -138z m-5
-365 c0 -5 3 -61 5 -125 l5 -117 -178 5 c-98 3 -227 7 -288 9 -60 2 -141 4
-180 5 l-70 1 50 15 c52 16 503 165 590 195 58 20 65 22 66 12z m13294 -89
c39 -3 88 -7 110 -9 22 -2 85 -7 140 -11 55 -3 114 -7 130 -9 17 -2 53 -3 80
-4 l50 -2 -120 -48 c-66 -27 -239 -103 -383 -169 l-264 -121 6 57 c3 31 8 100
12 152 7 109 11 174 13 178 1 4 54 0 226 -14z m70 -1109 c28 -4 58 -11 68 -16
9 -6 17 -7 17 -5 0 10 125 -48 177 -82 236 -153 172 -433 -107 -469 -275 -36
-589 137 -590 326 -1 190 165 284 435 246z m-13100 -405 c3 -5 8 -18 10 -27 2
-10 21 -71 44 -136 l40 -117 -36 -15 c-19 -8 -40 -15 -45 -15 -6 0 -24 -6 -41
-14 -18 -8 -78 -30 -134 -49 l-102 -35 -20 61 c-45 132 -23 170 164 291 109
70 111 71 120 56z m-546 -257 c33 -22 50 -44 76 -98 55 -116 57 -108 -32 -140
-43 -15 -118 -42 -168 -61 l-90 -33 -19 42 c-58 128 -53 218 16 271 73 55 150
62 217 19z m941 -705 c34 -68 66 -127 70 -133 21 -29 71 -127 66 -132 -4 -5
-210 -52 -228 -53 -5 0 -8 4 -8 10 0 5 -13 31 -28 57 -16 26 -48 85 -72 131
l-43 84 83 83 c46 46 87 82 91 80 3 -3 35 -60 69 -127z m-319 -267 c27 -51 48
-96 45 -98 -4 -4 -65 -20 -111 -28 -55 -11 -75 -15 -140 -29 -38 -8 -86 -20
-105 -26 -19 -5 -38 -10 -42 -10 -4 0 59 65 140 145 81 79 151 143 155 142 5
-1 31 -44 58 -96z m12094 -185 c183 -28 393 -188 455 -346 50 -127 3 -258
-112 -310 -64 -29 -182 -22 -273 14 -210 85 -376 270 -376 420 0 86 46 162
124 202 27 15 123 34 137 28 3 -1 23 -5 45 -8z m-11730 -664 c17 -8 42 -24 57
-35 28 -21 88 -99 88 -115 0 -9 -273 -220 -297 -229 -18 -7 -99 104 -113 153
-25 88 12 165 104 215 55 30 115 34 161 11z m1655 -1049 c14 -3 27 -7 30 -8
41 -10 190 -111 190 -129 0 -5 -24 -41 -54 -80 -100 -133 -405 -545 -418 -565
-16 -26 -37 -20 -103 29 -112 84 -163 163 -170 266 -12 187 194 452 382 492
40 9 100 6 143 -5z"/>
</g>
</svg>
